<?xml version="1.0" encoding="UTF-8"?>
<svg version="1.1" xmlns="http://www.w3.org/2000/svg" width="53" height="61">
<path d="M0 0 C2.31 0 4.62 0 7 0 C7 1.65 7 3.3 7 5 C12.7974423 5.24428343 12.7974423 5.24428343 18 3 C20 4.1875 20 4.1875 22 6 C22.25 8.4375 22.25 8.4375 22 11 C22 12.32 22 13.64 22 15 C19.47762381 15.91722771 17.75175466 16.33896081 15.25 15.2109375 C14.03377075 14.48224843 12.82412523 13.74246519 11.62109375 12.9921875 C7.6446079 10.55838652 3.5667844 10.63171094 -1 11 C-7.77402865 12.85227346 -12.03211407 15.18043396 -16 21 C-8.0846824 24.31423925 -0.02427026 27.07138547 8.125 29.75 C9.36765625 30.16121094 10.6103125 30.57242187 11.890625 30.99609375 C14.92618183 32.00016255 17.96264107 33.00139873 21 34 C21 35.32 21 36.64 21 38 C18.525 38.495 18.525 38.495 16 39 C16 41.64 16 44.28 16 47 C17.65 47.33 19.3 47.66 21 48 C21 48.99 21 49.98 21 51 C12.29490157 54.39711158 5.95972752 52.63157945 -2.4375 49.5 C-3.35982422 49.16613281 -4.28214844 48.83226562 -5.23242188 48.48828125 C-7.49209565 47.66871045 -9.74753441 46.83913509 -12 46 C-12 45.01 -12 44.02 -12 43 C-13.32 42.67 -14.64 42.34 -16 42 C-14.81482789 44.8013159 -13.32406379 46.82184144 -11.3125 49.0625 C-10.549375 50.031875 -9.78625 51.00125 -9 52 C-9.33 52.99 -9.66 53.98 -10 55 C-8.7625 54.814375 -7.525 54.62875 -6.25 54.4375 C-3.23720423 54.05288777 -0.89989173 53.9125406 2 55 C2 56.32 2 57.64 2 59 C3.32 59 4.64 59 6 59 C6 57.68 6 56.36 6 55 C8.31 54.67 10.62 54.34 13 54 C12.505 54.99 12.505 54.99 12 56 C9.9375 56.625 9.9375 56.625 8 57 C7.67 58.32 7.34 59.64 7 61 C5.02 61 3.04 61 1 61 C0.6596875 60.0409375 0.6596875 60.0409375 0.3125 59.0625 C-0.85250896 56.72806339 -0.85250896 56.72806339 -3.625 56.25 C-4.40875 56.1675 -5.1925 56.085 -6 56 C-6 56.66 -6 57.32 -6 58 C-7.65 57.67 -9.3 57.34 -11 57 C-11.495 54.525 -11.495 54.525 -12 52 C-13.11375 52.3403125 -13.11375 52.3403125 -14.25 52.6875 C-17.74944062 53.08516371 -18.31487918 52.09775064 -21 50 C-23.66761764 49.74875174 -23.66761764 49.74875174 -26 50 C-26.66 48.02 -27.32 46.04 -28 44 C-27.2265625 43.4121875 -27.2265625 43.4121875 -26.4375 42.8125 C-25.963125 42.214375 -25.48875 41.61625 -25 41 C-25.23043864 38.34533951 -25.23043864 38.34533951 -26 36 C-27.32 35.67 -28.64 35.34 -30 35 C-30 32.69 -30 30.38 -30 28 C-28.35 28 -26.7 28 -25 28 C-24.67 25.36 -24.34 22.72 -24 20 C-24.99 19.67 -25.98 19.34 -27 19 C-26.34 17.02 -25.68 15.04 -25 13 C-24.0925 13.0825 -23.185 13.165 -22.25 13.25 C-18.94267315 13.27848035 -18.94267315 13.27848035 -16.5625 11.25 C-14.73436727 9.14385268 -14.73436727 9.14385268 -15.25 6.75 C-15.4975 6.1725 -15.745 5.595 -16 5 C-14.02 4.01 -12.04 3.02 -10 2 C-9.34 2.66 -8.68 3.32 -8 4 C-4.91652174 4.16681109 -4.91652174 4.16681109 -2 4 C-1.34 2.68 -0.68 1.36 0 0 Z M-20 30 C-19.67 32.97 -19.34 35.94 -19 39 C-18.67 38.34 -18.34 37.68 -18 37 C-17.08476562 37.3609375 -16.16953125 37.721875 -15.2265625 38.09375 C-14.03804687 38.5578125 -12.84953125 39.021875 -11.625 39.5 C-10.44164062 39.9640625 -9.25828125 40.428125 -8.0390625 40.90625 C-5.2246756 42.11287794 -5.2246756 42.11287794 -3 42 C-3 41.34 -3 40.68 -3 40 C-3.99 40 -4.98 40 -6 40 C-6 39.34 -6 38.68 -6 38 C-5.2575 38.20625 -4.515 38.4125 -3.75 38.625 C-0.62203932 39.05154009 0.32595741 38.49700675 3 37 C-0.2681432 35.82569926 -3.53992515 34.66188744 -6.8125 33.5 C-8.2056543 32.99919922 -8.2056543 32.99919922 -9.62695312 32.48828125 C-10.51962891 32.17246094 -11.41230469 31.85664063 -12.33203125 31.53125 C-13.15421143 31.23798828 -13.9763916 30.94472656 -14.82348633 30.64257812 C-17.10130654 29.85842475 -17.10130654 29.85842475 -20 30 Z M14 39 C14 41.97 14 44.94 14 48 C14.33 48 14.66 48 15 48 C15 45.03 15 42.06 15 39 C14.67 39 14.34 39 14 39 Z " fill="#F66100" transform="translate(30,0)"/>
<path d="M0 0 C2.00720923 0.28674418 4.0085944 0.61866701 6 1 C6 2.32 6 3.64 6 5 C7.32 5 8.64 5 10 5 C10 3.68 10 2.36 10 1 C13.465 0.505 13.465 0.505 17 0 C16.67 0.66 16.34 1.32 16 2 C13.9375 2.625 13.9375 2.625 12 3 C11.67 4.32 11.34 5.64 11 7 C9.02 7 7.04 7 5 7 C4.7525 6.38125 4.505 5.7625 4.25 5.125 C2.79371361 2.64931313 1.62187494 2.04874998 -1 1 C-0.67 0.67 -0.34 0.34 0 0 Z " fill="#EC5A00" transform="translate(26,54)"/>
</svg>
